      <svg xmlns="http://www.w3.org/2000/svg" fill="none" viewBox="0 0 1440 832" style="left:calc(50% - var(--hero-width) / 2)" class="effect_heroEffect__iMPcv __web-inspector-hide-shortcut__"><g clip-path="url(#a)"><g clip-path="url(#b)"><mask id="d" width="1422" height="665" x="-7" y="-88" maskUnits="userSpaceOnUse" style="mask-type:alpha"><path fill="url(#c)" d="M57.897-87.456h1440v193h-1440z" transform="rotate(19.567 57.897 -87.456)"></path></mask><g mask="url(#d)"><g filter="url(#e)"><path stroke="#8E9AFF" stroke-width="0.75" d="M18.148-26.34s236.879 209.559 681.99 281.52C1145.25 327.141 1398.2 491.47 1398.2 491.47"></path></g><g filter="url(#f)"><path stroke="#4253E7" stroke-width="0.75" d="M11.17-8.345S253.455 194.94 700.298 255.226c446.843 60.284 704.013 217.936 704.013 217.936"></path></g><path stroke="url(#g)" stroke-width="0.75" d="M352.067 153.858c-57.582-20.968-108.041-43.133-151.153-64.425"></path><path stroke="url(#h)" stroke-width="0.75" d="M1153.85 346.498c-52.87-18.346-113.48-36.938-181.363-54.067"></path><g filter="url(#i)"><path stroke="#4253E7" stroke-width="0.75" d="M11.669-13.168s242.283 203.286 689.126 263.571C1147.64 310.688 1404.8 468.339 1404.8 468.339"></path></g><g filter="url(#j)"><path stroke="#537FFF" stroke-width="0.75" d="M3.76 5.412s245.795 199.027 693.622 251.504c447.828 52.477 707.708 205.616 707.708 205.616"></path></g><path stroke="url(#k)" stroke-width="0.75" d="M861.263 297.807a2432.664 2432.664 0 0 0-126.462-20.427"></path><g filter="url(#l)"><path stroke="#4253E7" stroke-width="0.75" d="M2.015 5.883s249.23 194.707 697.905 239.36c448.67 44.653 711.19 193.234 711.19 193.234"></path></g><path stroke="url(#m)" stroke-linecap="round" stroke-opacity="0.4" stroke-width="0.75" d="M553.601 207.912c-85.544-19.333-161.379-43.367-227.128-68.64"></path><path stroke="#8E9AFF" stroke-width="0.75" d="M18.148-26.34s236.879 209.559 681.99 281.52C1145.25 327.141 1398.2 491.471 1398.2 491.471"></path><path stroke="#4253E7" stroke-width="0.75" d="M11.173-8.345S253.456 194.94 700.299 255.226c446.841 60.285 704.011 217.936 704.011 217.936"></path><path stroke="url(#n)" stroke-width="0.75" d="M352.067 153.858c-57.582-20.968-108.041-43.133-151.153-64.425"></path><path stroke="url(#o)" stroke-width="0.75" d="M1153.85 346.497c-52.88-18.345-113.48-36.938-181.365-54.067"></path><path stroke="#4253E7" stroke-width="0.75" d="M11.667-13.168S253.95 190.118 700.793 250.403C1147.64 310.687 1404.8 468.339 1404.8 468.339"></path><path stroke="#537FFF" stroke-width="0.75" d="M3.759 5.412S249.553 204.438 697.38 256.916c447.83 52.477 707.71 205.616 707.71 205.616"></path><path stroke="url(#p)" stroke-width="0.75" d="M861.263 297.807a2432.664 2432.664 0 0 0-126.462-20.427"></path><path stroke="#4253E7" stroke-width="0.75" d="M2.015 5.883s249.23 194.706 697.905 239.36c448.67 44.653 711.19 193.234 711.19 193.234"></path><path stroke="url(#q)" stroke-linecap="round" stroke-opacity="0.4" stroke-width="0.75" d="M553.601 207.912c-85.544-19.333-161.379-43.367-227.128-68.64"></path><circle cx="274.497" cy="116.939" r="1" fill="#8793FF" fill-opacity="0.467" transform="rotate(15.517 274.497 116.939)"></circle><circle cx="152.452" cy="107.962" r="1" fill="#4253E7" transform="rotate(15.517 152.452 107.962)"></circle><circle cx="152.452" cy="107.962" r="1" fill="#4253E7" transform="rotate(15.517 152.452 107.962)"></circle><circle cx="456.43" cy="226.088" r="0.5" fill="#fff" fill-opacity="0.6" transform="rotate(15.517 456.43 226.088)"></circle><g filter="url(#r)"><circle cx="739.682" cy="273.077" r="1" fill="#4253E7" transform="rotate(15.517 739.682 273.077)"></circle></g><circle cx="325.924" cy="145.831" r="0.5" fill="#fff" fill-opacity="0.6" transform="rotate(15.517 325.924 145.831)"></circle><g filter="url(#s)"><circle cx="466.251" cy="146.911" r="1" fill="#4253E7" transform="rotate(15.517 466.251 146.911)"></circle></g><circle cx="448.53" cy="128.499" r="1" fill="#4253E7" transform="rotate(15.517 448.53 128.499)"></circle><g filter="url(#t)"><circle cx="366.559" cy="197.589" r="0.5" fill="#fff" fill-opacity="0.8" transform="rotate(15.517 366.559 197.589)"></circle></g><g filter="url(#u)"><circle cx="365.203" cy="132.263" r="0.5" fill="#4253E7" transform="rotate(15.517 365.203 132.263)"></circle></g><circle cx="220.436" cy="143.443" r="1" fill="#4253E7" transform="rotate(15.517 220.436 143.443)"></circle><g filter="url(#v)"><circle cx="206.403" cy="66.898" r="1" fill="#4253E7" transform="rotate(15.517 206.403 66.898)"></circle></g><circle cx="46.272" cy="62.395" r="0.5" fill="#fff" fill-opacity="0.6" transform="rotate(15.517 46.272 62.395)"></circle><g filter="url(#w)"><circle cx="110.046" cy="21.465" r="1" fill="#8793FF" transform="rotate(15.517 110.046 21.465)"></circle></g></g></g></g><defs><filter id="e" width="1396.5" height="534.402" x="9.902" y="-34.619" color-interpolation-filters="sRGB" filterUnits="userSpaceOnUse"><feFlood flood-opacity="0" result="BackgroundImageFix"></feFlood><feColorMatrix in="SourceAlpha" result="hardAlpha" values="0 0 0 0 0 0 0 0 0 0 0 0 0 0 0 0 0 0 127 0"></feColorMatrix><feOffset></feOffset><feGaussianBlur stdDeviation="4"></feGaussianBlur><feComposite in2="hardAlpha" operator="out"></feComposite><feColorMatrix values="0 0 0 0 0.556863 0 0 0 0 0.603922 0 0 0 0 1 0 0 0 0.8 0"></feColorMatrix><feBlend in2="BackgroundImageFix" result="effect1_dropShadow_357_25508"></feBlend><feBlend in="SourceGraphic" in2="effect1_dropShadow_357_25508" result="shape"></feBlend></filter><filter id="f" width="1403.57" height="492.111" x="5.932" y="-13.631" color-interpolation-filters="sRGB" filterUnits="userSpaceOnUse"><feFlood flood-opacity="0" result="BackgroundImageFix"></feFlood><feColorMatrix in="SourceAlpha" result="hardAlpha" values="0 0 0 0 0 0 0 0 0 0 0 0 0 0 0 0 0 0 127 0"></feColorMatrix><feOffset></feOffset><feGaussianBlur stdDeviation="2.5"></feGaussianBlur><feComposite in2="hardAlpha" operator="out"></feComposite><feColorMatrix values="0 0 0 0 0.32549 0 0 0 0 0.466667 0 0 0 0 1 0 0 0 1 0"></feColorMatrix><feBlend in2="BackgroundImageFix" result="effect1_dropShadow_357_25508"></feBlend><feBlend in="SourceGraphic" in2="effect1_dropShadow_357_25508" result="shape"></feBlend></filter><filter id="i" width="1403.57" height="492.111" x="6.43" y="-18.453" color-interpolation-filters="sRGB" filterUnits="userSpaceOnUse"><feFlood flood-opacity="0" result="BackgroundImageFix"></feFlood><feColorMatrix in="SourceAlpha" result="hardAlpha" values="0 0 0 0 0 0 0 0 0 0 0 0 0 0 0 0 0 0 127 0"></feColorMatrix><feOffset></feOffset><feGaussianBlur stdDeviation="2.5"></feGaussianBlur><feComposite in2="hardAlpha" operator="out"></feComposite><feColorMatrix values="0 0 0 0 0.32549 0 0 0 0 0.466667 0 0 0 0 1 0 0 0 1 0"></feColorMatrix><feBlend in2="BackgroundImageFix" result="effect1_dropShadow_357_25508"></feBlend><feBlend in="SourceGraphic" in2="effect1_dropShadow_357_25508" result="shape"></feBlend></filter><filter id="j" width="1411.75" height="467.732" x="-1.473" y="0.122" color-interpolation-filters="sRGB" filterUnits="userSpaceOnUse"><feFlood flood-opacity="0" result="BackgroundImageFix"></feFlood><feColorMatrix in="SourceAlpha" result="hardAlpha" values="0 0 0 0 0 0 0 0 0 0 0 0 0 0 0 0 0 0 127 0"></feColorMatrix><feOffset></feOffset><feGaussianBlur stdDeviation="2.5"></feGaussianBlur><feComposite in2="hardAlpha" operator="out"></feComposite><feColorMatrix values="0 0 0 0 0.32549 0 0 0 0 0.466667 0 0 0 0 1 0 0 0 1 0"></feColorMatrix><feBlend in2="BackgroundImageFix" result="effect1_dropShadow_357_25508"></feBlend><feBlend in="SourceGraphic" in2="effect1_dropShadow_357_25508" result="shape"></feBlend></filter><filter id="l" width="1419.5" height="443.213" x="-3.213" y="0.589" color-interpolation-filters="sRGB" filterUnits="userSpaceOnUse"><feFlood flood-opacity="0" result="BackgroundImageFix"></feFlood><feColorMatrix in="SourceAlpha" result="hardAlpha" values="0 0 0 0 0 0 0 0 0 0 0 0 0 0 0 0 0 0 127 0"></feColorMatrix><feOffset></feOffset><feGaussianBlur stdDeviation="2.5"></feGaussianBlur><feComposite in2="hardAlpha" operator="out"></feComposite><feColorMatrix values="0 0 0 0 0.32549 0 0 0 0 0.466667 0 0 0 0 1 0 0 0 1 0"></feColorMatrix><feBlend in2="BackgroundImageFix" result="effect1_dropShadow_357_25508"></feBlend><feBlend in="SourceGraphic" in2="effect1_dropShadow_357_25508" result="shape"></feBlend></filter><filter id="r" width="6" height="6" x="736.682" y="270.077" color-interpolation-filters="sRGB" filterUnits="userSpaceOnUse"><feFlood flood-opacity="0" result="BackgroundImageFix"></feFlood><feBlend in="SourceGraphic" in2="BackgroundImageFix" result="shape"></feBlend><feGaussianBlur result="effect1_foregroundBlur_357_25508" stdDeviation="1"></feGaussianBlur></filter><filter id="s" width="10" height="10.001" x="461.25" y="141.911" color-interpolation-filters="sRGB" filterUnits="userSpaceOnUse"><feFlood flood-opacity="0" result="BackgroundImageFix"></feFlood><feBlend in="SourceGraphic" in2="BackgroundImageFix" result="shape"></feBlend><feGaussianBlur result="effect1_foregroundBlur_357_25508" stdDeviation="2"></feGaussianBlur></filter><filter id="t" width="3" height="3" x="365.059" y="196.088" color-interpolation-filters="sRGB" filterUnits="userSpaceOnUse"><feFlood flood-opacity="0" result="BackgroundImageFix"></feFlood><feBlend in="SourceGraphic" in2="BackgroundImageFix" result="shape"></feBlend><feGaussianBlur result="effect1_foregroundBlur_357_25508" stdDeviation="0.5"></feGaussianBlur></filter><filter id="u" width="5" height="5" x="362.703" y="129.763" color-interpolation-filters="sRGB" filterUnits="userSpaceOnUse"><feFlood flood-opacity="0" result="BackgroundImageFix"></feFlood><feBlend in="SourceGraphic" in2="BackgroundImageFix" result="shape"></feBlend><feGaussianBlur result="effect1_foregroundBlur_357_25508" stdDeviation="1"></feGaussianBlur></filter><filter id="v" width="6" height="6" x="203.402" y="63.898" color-interpolation-filters="sRGB" filterUnits="userSpaceOnUse"><feFlood flood-opacity="0" result="BackgroundImageFix"></feFlood><feBlend in="SourceGraphic" in2="BackgroundImageFix" result="shape"></feBlend><feGaussianBlur result="effect1_foregroundBlur_357_25508" stdDeviation="1"></feGaussianBlur></filter><filter id="w" width="6" height="6" x="107.045" y="18.464" color-interpolation-filters="sRGB" filterUnits="userSpaceOnUse"><feFlood flood-opacity="0" result="BackgroundImageFix"></feFlood><feBlend in="SourceGraphic" in2="BackgroundImageFix" result="shape"></feBlend><feGaussianBlur result="effect1_foregroundBlur_357_25508" stdDeviation="1"></feGaussianBlur></filter><linearGradient id="c" x1="57.897" x2="1497.9" y1="9.044" y2="9.044" gradientUnits="userSpaceOnUse"><stop stop-color="#D9D9D9" stop-opacity="0"></stop><stop offset="0.052" stop-color="#D9D9D9" stop-opacity="0.71"></stop><stop offset="0.308" stop-color="#D9D9D9"></stop><stop offset="0.377" stop-color="#D9D9D9"></stop><stop offset="0.484" stop-color="#D9D9D9"></stop><stop offset="0.564" stop-color="#D9D9D9"></stop><stop offset="0.655" stop-color="#D9D9D9"></stop><stop offset="0.932" stop-color="#D9D9D9" stop-opacity="0.444"></stop><stop offset="1" stop-color="#D9D9D9" stop-opacity="0"></stop></linearGradient><linearGradient id="g" x1="346.032" x2="274.61" y1="152.922" y2="127.087" gradientUnits="userSpaceOnUse"><stop stop-color="#4253E7"></stop><stop offset="1" stop-color="#4253E7" stop-opacity="0"></stop></linearGradient><linearGradient id="h" x1="1145.11" x2="1061.84" y1="338.238" y2="323.313" gradientUnits="userSpaceOnUse"><stop stop-color="#6B7AFF"></stop><stop offset="1" stop-color="#4253E7" stop-opacity="0"></stop></linearGradient><linearGradient id="k" x1="862.193" x2="794.962" y1="298.174" y2="297.005" gradientUnits="userSpaceOnUse"><stop stop-color="#537FFF"></stop><stop offset="1" stop-color="#537FFF" stop-opacity="0"></stop></linearGradient><linearGradient id="m" x1="544.279" x2="438.214" y1="204.282" y2="178.866" gradientUnits="userSpaceOnUse"><stop stop-color="#4253E7"></stop><stop offset="1" stop-color="#4253E7" stop-opacity="0"></stop></linearGradient><linearGradient id="n" x1="346.032" x2="274.61" y1="152.922" y2="127.087" gradientUnits="userSpaceOnUse"><stop stop-color="#4253E7"></stop><stop offset="1" stop-color="#4253E7" stop-opacity="0"></stop></linearGradient><linearGradient id="o" x1="1145.11" x2="1061.84" y1="338.238" y2="323.313" gradientUnits="userSpaceOnUse"><stop stop-color="#6B7AFF"></stop><stop offset="1" stop-color="#4253E7" stop-opacity="0"></stop></linearGradient><linearGradient id="p" x1="862.193" x2="794.962" y1="298.174" y2="297.005" gradientUnits="userSpaceOnUse"><stop stop-color="#537FFF"></stop><stop offset="1" stop-color="#537FFF" stop-opacity="0"></stop></linearGradient><linearGradient id="q" x1="544.279" x2="438.214" y1="204.282" y2="178.866" gradientUnits="userSpaceOnUse"><stop stop-color="#4253E7"></stop><stop offset="1" stop-color="#4253E7" stop-opacity="0"></stop></linearGradient><clipPath id="a"><path fill="#fff" d="M0 0h1440v832H0z"></path></clipPath><clipPath id="b"><path fill="#fff" d="M57.897-87.456 1414.74 394.803l-64.637 181.855L-6.74 94.398z"></path></clipPath></defs></svg>
