<svg width="72" height="70" viewBox="0 0 72 70" fill="none" xmlns="http://www.w3.org/2000/svg">
<path d="M71.6667 24.2083V17.2917H53.75V0H46.5833V17.2917H39.4167V0H32.25V17.2917H25.0833V0H17.9167V17.2917H0V24.2083H17.9167V31.125H0V38.0417H17.9167V44.9583H0V51.875H17.9167V69.1667H25.0833V51.875H32.25V69.1667H39.4167V51.875H46.5833V69.1667H53.75V51.875H71.6667V44.9583H53.75V38.0417H71.6667V31.125H53.75V24.2083H71.6667Z" fill="url(#paint0_linear_30_8)"/>
<path d="M7.16669 13.8334V55.3334C7.16669 59.1375 10.3917 62.25 14.3334 62.25H57.3334C61.275 62.25 64.5 59.1375 64.5 55.3334V13.8334C64.5 10.0292 61.275 6.91669 57.3334 6.91669H14.3334C10.3917 6.91669 7.16669 10.0292 7.16669 13.8334Z" fill="url(#paint1_linear_30_8)"/>
<path d="M48.375 46.6875H23.2916C21.3208 46.6875 19.7083 45.1313 19.7083 43.2292V25.9375C19.7083 24.0354 21.3208 22.4792 23.2916 22.4792H48.375C50.3458 22.4792 51.9583 24.0354 51.9583 25.9375V43.2292C51.9583 45.1313 50.3458 46.6875 48.375 46.6875Z" fill="white"/>
<defs>
<linearGradient id="paint0_linear_30_8" x1="35.8333" y1="0" x2="35.8333" y2="69.1667" gradientUnits="userSpaceOnUse">
<stop stop-color="#480F8D"/>
<stop offset="1" stop-color="#8842B5"/>
</linearGradient>
<linearGradient id="paint1_linear_30_8" x1="35.8334" y1="6.91669" x2="35.8334" y2="62.25" gradientUnits="userSpaceOnUse">
<stop stop-color="#8D45B8"/>
<stop offset="1" stop-color="#430B8B"/>
</linearGradient>
</defs>
</svg>
